<?xml version="1.0" encoding="utf-8"?>
<!DOCTYPE svg PUBLIC "-//W3C//DTD SVG 1.0//EN" "http://www.w3.org/TR/2001/REC-SVG-20010904/DTD/svg10.dtd">
<svg version="1.0" xmlns="http://www.w3.org/2000/svg" width="2064px" height="1181px" viewBox="0 0 2064 1181" preserveAspectRatio="xMidYMid meet">
 <g fill="#e8710a">
  <path d="M1444.5 1180.3 c-127.2 -3.2 -251.4 -46.1 -352 -121.7 -15 -11.3 -38.1 -30.7 -50.2 -42.3 l-9.3 -8.8 92.5 -89.5 c50.8 -49.2 97.3 -94.1 103.1 -99.7 l10.7 -10.2 2.7 2.2 c1.5 1.2 6.1 5.2 10.1 8.8 38.4 34.7 93.2 61.5 146.9 71.8 83.3 15.9 168 -0.6 237.5 -46.4 23.6 -15.6 51.1 -40.3 69.5 -62.5 26.9 -32.6 47.8 -73.6 58.5 -114.6 6.8 -26.3 9.6 -48.4 9.6 -76.9 0.1 -78.2 -27.4 -147.6 -82 -207.3 l-8.5 -9.3 13 -12.8 c7.1 -7.1 52.5 -51.7 100.9 -99.1 75.7 -74.3 95.3 -93.8 87.2 -87.1 -1.5 1.2 -1.7 1 -1.7 -1.3 l0 -2.7 2.9 2.2 c6.5 4.8 35.6 36.8 50.7 55.9 73.8 92.7 115.7 200 125.4 320.9 1.4 17.5 1.4 61.8 0 80.7 -9.6 128.2 -59.7 248.1 -143.4 342.9 -74.6 84.5 -168.7 145.6 -276.1 179.3 -61.4 19.2 -132.7 29.1 -198 27.5z"/>
  <path d="M165.4 994.8 c-86.8 -88.9 -143.5 -206.1 -159.9 -330.3 -6 -45.8 -6 -103.3 0 -149 13.8 -104.5 54.9 -201.7 120.8 -285.5 11.5 -14.6 34 -40 44.9 -50.8 l8.3 -8.2 8.4 8.4 c5.8 5.8 8.2 8.9 7.9 10.2 -0.3 1.5 -2.2 0.1 -9.9 -7.1 -7.9 -7.5 -7.6 -7.1 2.1 2.6 9.4 9.5 181.7 178.7 189.9 186.5 l2.4 2.3 -9.3 9.8 c-34.3 36.4 -60 84 -72.4 134.3 -6.2 24.9 -8 41.1 -8.1 70.5 0 27.4 0.9 37.5 5.1 59.5 10.7 54.9 38.9 109.5 77.1 149.1 l8.4 8.7 -23.8 23.4 c-13.1 12.9 -54.6 53.5 -92.3 90.3 -37.7 36.8 -73 71.3 -78.5 76.7 l-10.1 9.8 -11 -11.2z"/>
  <path d="M332.6 855.6 c0.9 -2.4 3.4 -2.8 3.4 -0.6 0 1.3 -0.7 2 -2 2 -1.3 0 -1.7 -0.5 -1.4 -1.4z"/>
  <path d="M377.3 811.3 c2.9 -3 3.9 -3.5 4.9 -2.5 1 1 0.7 1.7 -1.4 3.7 -1.5 1.4 -3.7 2.5 -5 2.5 -2.1 0 -2 -0.3 1.5 -3.7z"/>
  <path d="M379.7 371.5 c-0.5 -1 0 -1.5 1.4 -1.5 1.2 0 1.9 0.5 1.7 1.2 -0.6 1.8 -2.5 2 -3.1 0.3z"/>
  <path d="M373 365.2 l-3.5 -3.1 2.6 -0.1 c3.1 0 5.2 2.1 4.7 4.7 -0.3 1.4 -0.8 1.2 -3.8 -1.5z"/>
  <path d="M324.3 317.5 c-9.4 -9 -10.5 -10.4 -8.3 -10.5 1.8 0 4.4 1.9 9.3 6.8 3.7 3.7 6.7 7.5 6.7 8.5 0 1 0.8 1.7 2 1.7 1.3 0 2 0.7 2 2 0 1.1 -0.2 2 -0.5 2 -0.2 0 -5.3 -4.7 -11.2 -10.5z"/>
  <path d="M291 285 c-2.3 -2.3 -2.3 -2.5 -0.6 -2.8 2.3 -0.5 3.9 1.1 3.4 3.4 -0.3 1.7 -0.5 1.7 -2.8 -0.6z"/>
  <path d="M271.4 265.8 c-11.8 -11.7 -13.5 -13.8 -11.4 -13.8 3.5 0 26.4 22.8 25.8 25.6 -0.3 1.5 -3.4 -1 -14.4 -11.8z"/>
  <path d="M221.4 216.8 c-15.8 -15.7 -18.5 -18.8 -16.4 -18.8 3.5 0 36.4 32.8 35.8 35.6 -0.4 1.5 -4.6 -2.2 -19.4 -16.8z"/>
  <path d="M1873 183 c0 -1.5 0.7 -2 2.6 -2 2.7 0 2.5 1.4 -0.7 3 -1.6 0.9 -1.9 0.7 -1.9 -1z"/>
 </g>
 <g fill="#f9ab00">
  <path d="M557.5 1176.9 c-96.8 -7.7 -184.1 -34.7 -265.8 -82.1 -36.2 -21 -80.5 -54.1 -106.2 -79.2 l-8.3 -8.1 52.2 -50.9 c66.5 -65.1 99.3 -97.2 128.3 -126 l23.1 -22.9 7.4 6.8 c40.5 37.8 94.7 65.2 150.8 76.4 37.4 7.4 79.7 8 118 1.5 59.6 -10 116.8 -37.9 159.7 -77.8 l7.2 -6.7 17.9 29.8 c9.8 16.4 34.5 57.3 54.7 90.8 20.2 33.6 45.7 75.7 56.6 93.8 11.2 18.6 19.1 32.7 18.3 32.7 -0.7 0 -2.8 1.3 -4.6 2.9 -1.8 1.6 -8.7 6.6 -15.3 11.2 -90.2 62.4 -190.8 98.2 -302 107.4 -19.3 1.6 -74.1 1.9 -92 0.4z"/>
  <path d="M1021.4 995.8 c-88.8 -91.8 -144.8 -207.2 -160.9 -331.3 -7.1 -55.2 -5.9 -115.5 3.5 -171.7 15.9 -94.8 57.9 -188.4 118.4 -263.8 95.4 -118.8 226.7 -195.3 378.1 -220.4 52.2 -8.6 113.7 -10.1 167.5 -4.1 130.7 14.8 252.2 70.2 346.8 158.4 l11.4 10.5 -6.4 6.1 c-3.5 3.3 -19.8 19 -36.3 35 -16.5 16 -45.1 43.7 -63.5 61.5 -18.4 17.8 -40 38.7 -48 46.5 -8 7.7 -22.6 21.9 -32.5 31.5 -9.9 9.6 -18.2 17.9 -18.3 18.3 -0.2 0.4 -3.3 -2 -6.9 -5.3 -40.8 -38.2 -93.7 -65.2 -150.6 -76.9 -18.3 -3.8 -27.7 -4.9 -48 -6 -91 -4.9 -178.6 28.4 -241.4 92 -17.4 17.6 -25.1 27 -38.4 46.8 -26.3 39.2 -42 81.6 -48.6 130.9 -2.3 17.2 -2.3 54.9 0 72.3 8.8 66.4 36.7 125.2 82.1 172.7 l7 7.3 -8.4 8.3 c-4.7 4.6 -28.7 28 -53.5 52.1 -24.7 24.1 -54 52.7 -65 63.4 -33.1 32.5 -63.6 62.2 -71.1 69.4 l-7 6.8 -10 -10.3z"/>
  <path d="M377 369.2 c-7 -7.1 -110.7 -108.7 -168.3 -164.7 l-31.8 -31 7.3 -6.8 c87.9 -82.5 198.3 -136.9 317.8 -156.6 36.6 -6 62.6 -8.1 102.5 -8.1 71.6 0 136 10.9 203.5 34.4 55.5 19.4 113.8 50.1 158.5 83.5 3.3 2.4 6.2 4.6 6.3 4.7 0.4 0.2 -73.4 123.9 -126.1 211.5 l-22.1 36.6 -9.5 -8.5 c-47.7 -42.5 -105.9 -68.8 -172.6 -77.8 -18.2 -2.5 -60.8 -2.5 -79 0 -56.7 7.7 -107.9 28 -150.5 59.8 -9.9 7.4 -26.1 21 -29.4 24.7 -1.1 1.1 -2.2 2 -2.5 2 -0.3 -0.1 -2.2 -1.8 -4.1 -3.7z"/>
 </g>
</svg>