<svg xmlns="http://www.w3.org/2000/svg" viewBox="0 0 120 120" role="img" aria-label="GitHub logo">
  <rect width="120" height="120" rx="16" fill="#0D1117"/>
  <path d="M60 24c-19 0-34 15-34 34 0 15 9 28 22 32 2 0 3-1 3-3v-6c-9 2-11-4-11-4-2-4-4-5-4-5-3-2 0-2 0-2 3 0 5 3 5 3 2 4 5 3 6 2 0-2 1-3 1-3-7-1-14-4-14-16 0-3 1-6 3-8 0-1-1-4 0-8 0 0 3-1 9 3 3-1 6-1 9-1s6 0 9 1c6-4 9-3 9-3 1 4 0 7 0 8 2 2 3 5 3 8 0 12-7 15-14 16 1 1 2 2 2 4v7c0 2 1 3 3 3 13-4 22-17 22-32 0-19-15-34-34-34Z" fill="#fff"/>
</svg>

