<?xml version="1.0" encoding="utf-8"?>
<!DOCTYPE svg PUBLIC "-//W3C//DTD SVG 1.0//EN" "http://www.w3.org/TR/2001/REC-SVG-20010904/DTD/svg10.dtd">
<svg version="1.0" xmlns="http://www.w3.org/2000/svg" width="380px" height="380px" viewBox="0 0 380 380" preserveAspectRatio="xMidYMid meet">
 <g fill="#fefdfd">
  <path d="M152.5 377.5 c-23.7 -5.1 -39.5 -11.6 -65.3 -27 -16.6 -9.9 -43.8 -37.4 -55.6 -56.3 -2.6 -4.1 -3.9 -6.4 -9.2 -15.9 -5.3 -9.3 -12.1 -28 -15.8 -42.8 -7.8 -32.2 -6.2 -72.6 4.2 -103 10.8 -31.4 25.8 -55.3 48.8 -77.5 21.6 -20.9 43.7 -34.2 72.7 -44.1 30 -10.2 68.1 -12 100.2 -4.8 16.5 3.8 23.5 6.2 40 13.9 49.9 23.3 88.6 70 102.4 123.5 4.3 17 5.1 24.2 5.1 48 0 23.8 -0.8 31 -5.1 48 -4.8 18.5 -17.9 47.3 -27.1 59.5 -14.1 18.8 -24 29.5 -37.3 40.2 -12 9.8 -20.4 15 -37 23.2 -16.3 8.1 -25 11 -44.9 15.1 -11.1 2.3 -13.9 2.5 -38.5 2.4 -23.8 -0.1 -27.7 -0.3 -37.6 -2.4z m-28.9 -30.8 c-0.3 -1.6 -1.6 -4.3 -2.8 -6 l-2.3 -3.2 -0.3 4.3 c-0.2 2.7 -0.8 4.2 -1.7 4.2 -0.7 0 -1.5 0.6 -1.8 1.4 -0.4 0.9 -2.3 1.6 -4.9 1.8 l-4.3 0.3 4.9 1.6 c4.4 1.4 5.3 1.4 9.3 0 4.1 -1.5 4.4 -1.8 3.9 -4.4z m152.9 2.8 c2.9 -1.3 3 -1.3 0.5 -1.4 -4.2 -0.2 -7 -1.3 -7 -2.7 0 -0.8 -0.4 -1.4 -0.9 -1.4 -0.6 0 -1.1 -1.7 -1.3 -3.7 l-0.3 -3.8 -2.3 2.5 c-1.2 1.3 -2.6 3.8 -3.1 5.5 -0.7 2.8 -0.5 3.1 2.8 4.7 4.3 2.1 7.6 2.2 11.6 0.3z m-174.1 -13.9 c-1.2 -3.9 -4.2 -9.1 -6.3 -11 l-2.1 -1.9 0 4.1 c0 3.1 -0.4 4.2 -1.5 4.2 -0.8 0 -1.5 0.7 -1.5 1.6 0 1.4 -0.9 1.6 -5.6 1.2 l-5.5 -0.5 3.1 2 c5.6 3.6 9.7 4.5 15.1 3.4 4.4 -0.9 4.9 -1.2 4.3 -3.1z m117.2 0.5 c54.6 -11.2 98.5 -50.1 115.9 -102.6 10.5 -31.4 10.4 -60.6 -0.2 -92.4 -7 -21.1 -18.3 -39.7 -34.4 -56.5 -26.8 -28 -61.1 -44.5 -98.7 -47.5 -43.7 -3.4 -92 16.7 -121.9 50.9 -19.4 22.1 -31.6 47.1 -36.9 75.5 -2.7 14.4 -2.5 37.4 0.5 51.4 9.8 46.1 38 84 79.1 106.3 14.2 7.7 34.9 14.3 52.5 16.7 10.7 1.5 32.5 0.6 44.1 -1.8z m80.7 -0.8 l5.1 -2.8 -5.2 -0.3 c-2.9 -0.2 -5.2 -0.7 -5.2 -1.3 0 -0.5 -1 -0.9 -2.1 -0.9 -2 0 -2.1 -0.4 -1.6 -4.6 l0.5 -4.5 -2.5 2.3 c-2.7 2.5 -6.2 9.2 -6.3 12 0 3.6 10.7 3.6 17.3 0.1z m-220.3 -17.1 c0 -1.5 -1.2 -5.3 -2.7 -8.3 l-2.8 -5.4 -0.6 4.2 c-0.3 2.4 -0.8 4.5 -1.1 4.8 -0.3 0.3 -2.9 0.8 -5.7 1.2 -4.5 0.5 -5 0.8 -3.8 2 2 2.1 8.6 4.2 13 4.3 3.4 0 3.7 -0.2 3.7 -2.8z m240 -1.5 l3.5 -2.2 -3.7 -0.3 c-2.1 -0.2 -3.8 -0.7 -3.8 -1.3 0 -0.5 -0.9 -0.9 -2 -0.9 -1.7 0 -2 -0.7 -2 -4.7 l0 -4.8 -2.4 3.6 c-2.3 3.3 -4.6 9.8 -4.6 12.8 0 2 10.6 0.4 15 -2.2z m-260.6 -23.3 c-1.5 -3.4 -1.8 -3.6 -2.1 -1.7 -0.3 1.7 -1.3 2.3 -4.9 2.9 -4.3 0.6 -4.4 0.7 -2.8 2.5 1 1.1 3.8 2.5 6.3 3.3 4.5 1.3 4.6 1.3 4.9 -0.9 0.2 -1.3 -0.5 -4 -1.4 -6.1z m271.9 5.3 c1.8 -0.8 3.8 -2.1 4.5 -2.9 1.1 -1.3 0.7 -1.6 -2.8 -2.2 -3.5 -0.5 -4 -0.9 -4 -3.3 0 -2.5 -0.1 -2.6 -1.6 -1.1 -0.9 0.9 -1.9 3.7 -2.1 6.2 -0.6 5.2 0.2 5.7 6 3.3z"/>
  <path d="M172 272.5 c-20.6 -4.2 -40.6 -17.7 -52.9 -35.8 -16.1 -23.6 -19.1 -56.7 -7.9 -86 7.2 -18.7 22.2 -34.7 41.6 -44.2 14 -6.8 26.9 -9.1 45.6 -8.2 13.5 0.7 23.3 3 32.9 7.8 22.7 11.4 36.9 27.5 44.8 51 3 8.7 3.2 10.6 3.7 26.5 0.4 15.2 0.2 18 -1.7 25.4 -1.2 4.6 -3.7 11.7 -5.6 15.8 -11.2 24.2 -34.8 42.9 -60.3 47.8 -9.2 1.7 -31.4 1.7 -40.2 -0.1z m35.1 -9 c27.8 -5.6 52.2 -27.9 60.7 -55.7 3.8 -12.3 4.7 -22.1 2.7 -32.2 -3.5 -18.9 -9.4 -30.3 -22.5 -43.6 -21.1 -21.4 -49.2 -29.7 -75 -22 -24.7 7.3 -44.4 25.2 -54.1 49 -4.2 10.5 -6.3 21.8 -5.4 30.3 3.4 35 26.2 63.1 59.5 73.2 5 1.5 18.6 3.1 23 2.7 2.5 -0.2 7.5 -1 11.1 -1.7z"/>
  <path d="M169.9 256.7 c-28.6 -8.6 -49 -34.4 -50.6 -63.7 -0.6 -11.2 0.9 -25.5 3.6 -33.1 4.8 -13.8 15.9 -28 27.9 -35.6 22 -14.1 54.3 -15.3 78.3 -2.7 14.4 7.5 27.6 23.7 33.4 40.9 2.3 7 3.7 27 2.5 35.7 -1.3 8.9 -4.9 19.3 -9.2 26.6 -4.4 7.6 -17.8 20.8 -25.8 25.5 -11.5 6.7 -17.3 8 -36 8.4 -14.8 0.2 -17.3 0 -24.1 -2z m36.6 -8.3 c10.3 -2.5 20 -7.9 28.6 -16.1 20.9 -20 27.2 -48.1 16 -71.3 -3.8 -7.8 -6.4 -11.4 -13 -18.3 -30.3 -31.6 -77 -26.2 -100.8 11.8 -4.2 6.7 -6.9 13.7 -8.8 23.2 -1.5 7.6 -1.5 8.3 0.5 17.4 5 23.1 18.1 39.9 38.7 49.7 12.6 5.9 24.5 7.1 38.8 3.6z"/>
  <path d="M176.2 242.6 c-3 -0.7 -8.7 -3.1 -12.9 -5.1 -12.4 -6.4 -23.6 -20.4 -27.4 -34.5 -0.6 -2.5 -1.2 -10.3 -1.1 -17.5 0 -10.7 0.4 -14.1 2.2 -19.3 3.3 -9.5 6.8 -15.1 13.6 -22 11.2 -11.3 27.4 -16.9 45.4 -15.8 16.1 0.9 27.1 5.5 36.9 15.3 12.3 12.3 17.1 24.2 17.1 42 0 12.9 -1.2 18.9 -5.8 28.2 -6 12.1 -17.8 22.5 -30.7 27.2 -7.6 2.8 -29 3.6 -37.3 1.5z m25.8 -8.7 c24 -5.5 43 -31.8 38.9 -53.9 -3.8 -20.4 -18.7 -36.2 -39.4 -41.5 -7.1 -1.8 -10.6 -1.9 -17.7 -0.4 -17.4 3.7 -32.3 17.4 -38.3 35.2 -3.9 11.6 -3 20.9 3.1 33.6 5.2 10.8 20.3 23.5 32.4 27.2 3.7 1.1 15.8 1 21 -0.2z"/>
  <path d="M176.5 227.1 c-10.7 -3.8 -17.9 -10.3 -23.2 -20.9 -2.7 -5.4 -2.8 -6.4 -2.8 -19.7 0 -13.3 0.1 -14.3 2.9 -20.2 3.2 -6.9 10.7 -14.8 17.4 -18.2 5.4 -2.7 15.3 -5.1 21.8 -5.1 6.6 0 18.1 3.1 23.7 6.4 5.9 3.4 12.3 10.7 15.6 17.6 2.2 4.7 2.6 7.2 2.9 17.2 0.3 9.2 0 12.8 -1.3 17 -4 12.1 -13.4 21.8 -24.9 25.8 -7.5 2.7 -24.8 2.7 -32.1 0.1z m26.8 -9.1 c10 -3.8 19 -14 22.2 -25.2 2 -7.1 0.9 -13.8 -3.4 -21.3 -5.6 -9.6 -12.8 -15.1 -23.6 -18 -6.2 -1.7 -6.8 -1.7 -13.1 0 -11.7 3.2 -21.4 12.5 -25.4 24.5 -2.4 7.3 -2.2 10.6 1.2 19.7 3.5 9.4 15.3 19.8 25.3 22.4 3.9 1 10.8 0.1 16.8 -2.1z"/>
  <path d="M180.7 214.6 c-11.2 -4 -17.7 -14.2 -17.7 -27.9 0 -17.2 9.8 -28.5 26.6 -30.3 6.6 -0.7 14.9 1.1 20.4 4.5 3.8 2.2 9.4 9.5 10.9 14 1.5 4.5 1.4 18.3 -0.1 23.5 -1.6 5.5 -10.9 14.8 -16.4 16.4 -5.4 1.6 -18.9 1.5 -23.7 -0.2z m22 -10.8 c14.2 -9.4 13.2 -27.8 -1.9 -35.4 -2.8 -1.4 -6.6 -2.6 -8.4 -2.6 -10.4 0 -21.9 13.6 -20 23.7 0.8 4.3 5.6 10.8 10.9 14.6 3.8 2.8 4.8 3 9.9 2.7 3.9 -0.3 6.8 -1.2 9.5 -3z"/>
 </g>
 <g fill="#ffde00">
  <path d="M108 297.5 c0 -2.4 0.5 -3.5 1.5 -3.5 0.8 0 1.5 -0.9 1.5 -2 0 -1 1.1 -3 2.5 -4.4 1.4 -1.4 2.5 -3.2 2.5 -3.9 0 -0.8 0.7 -1.7 1.5 -2.1 0.8 -0.3 1.5 -1 1.5 -1.5 0 -0.6 1.1 -2.1 2.5 -3.5 1.4 -1.4 2.5 -3.2 2.5 -4.1 0 -0.8 0.5 -1.5 1 -1.5 0.6 0 1.3 -0.7 1.7 -1.6 0.3 -0.9 1.7 -2.7 2.9 -4 1.3 -1.2 2.4 -3 2.4 -3.7 0 -0.8 0.7 -1.7 1.5 -2.1 0.8 -0.3 1.5 -1.1 1.5 -1.8 0 -0.7 1.1 -2.1 2.4 -3 2.2 -1.6 2.5 -1.5 6.7 1.3 2.4 1.7 7.4 4.6 11.2 6.5 3.7 1.9 6.7 3.8 6.7 4.4 0 1.5 -42.7 32 -44.9 32 -1.2 0 -2.1 0.5 -2.1 1 0 0.6 -1.6 1 -3.5 1 -3.3 0 -3.5 -0.2 -3.5 -3.5z"/>
  <path d="M269 299.6 c0 -0.8 -0.6 -2.1 -1.3 -2.8 -0.7 -0.7 -4.5 -5.8 -8.5 -11.3 -4 -5.5 -7.6 -10.4 -8 -11 -0.4 -0.5 -2.3 -3.2 -4.2 -6 -1.9 -2.7 -4.5 -6.1 -5.7 -7.5 -2.9 -3.1 -2.9 -3.4 0.5 -5.6 1.5 -0.9 6 -4.9 9.9 -8.7 4 -3.9 7.4 -6.8 7.6 -6.6 0.2 0.2 4 11.7 8.5 25.5 5.9 18.2 8.2 26.6 8.2 30.3 l0 5.1 -3.5 0 c-2.4 0 -3.5 -0.5 -3.5 -1.4z"/>
  <path d="M159.4 261.7 c-5 -2.1 -18.4 -10.4 -18.4 -11.3 0 -0.9 2.6 -4.8 4.7 -7 l2.2 -2.2 8.3 4.9 c4.6 2.8 10.9 5.8 14 6.7 7.2 2.1 7.5 4 1.4 8.2 -5.3 3.6 -5.6 3.6 -12.2 0.7z"/>
  <path d="M234.2 251 c-3.1 -3.7 -4.2 -7 -2.3 -7 1.7 0 15 -13.1 17.8 -17.5 1.5 -2.5 3 -4.5 3.3 -4.5 0.3 0 1.6 3 2.8 6.7 1.9 5.8 2 7 0.8 8.8 -2.3 3.3 -13.9 14.6 -16.6 16 -2.4 1.2 -2.8 1.1 -5.8 -2.5z"/>
  <path d="M177 252.3 c-4.3 -0.5 -18.6 -7.1 -23.5 -10.8 -4.1 -3.2 -4 -4.7 0.5 -9.5 l2.8 -3 5.9 3.5 c8.8 5.2 16.6 7.7 26.6 8.3 7.6 0.4 8.7 0.7 8.7 2.3 0 1.3 -0.7 1.9 -2.3 1.9 -1.3 0 -4.8 1.8 -7.7 4 -2.9 2.2 -5.8 3.9 -6.4 3.8 -0.6 0 -2.7 -0.3 -4.6 -0.5z"/>
  <path d="M227 240.9 c-0.8 -1.1 -2.3 -3 -3.2 -4.1 -2.6 -3.1 -2.3 -4.1 2.8 -7.9 8.1 -6.1 16.1 -18 18.6 -27.6 1.5 -6.1 4 -5.8 3.7 0.5 -0.2 2.6 0.5 7.2 1.5 10.2 l1.8 5.6 -3.5 5.4 c-3.2 5.1 -17.8 20 -19.5 20 -0.4 0 -1.4 -0.9 -2.2 -2.1z"/>
  <path d="M184.5 238 c-3.8 -0.5 -9.2 -1.8 -12 -3 -6.4 -2.9 -13.5 -8 -13.5 -9.6 0 -0.7 1.1 -2.4 2.5 -3.8 1.4 -1.4 2.5 -3.2 2.5 -4.1 0 -2 0.2 -2 5.5 1.6 6.4 4.3 14.4 6.9 21.5 6.9 5.3 0 6 0.2 6 2 0 1.1 -0.5 2 -1.1 2 -0.8 0 -0.9 1.3 -0.5 4 0.3 2.3 0.2 4 -0.3 4 -0.5 0 -1.5 0.2 -2.3 0.4 -0.7 0.2 -4.4 0 -8.3 -0.4z"/>
  <path d="M215.8 226.1 c-1.6 -2.2 -2.8 -4.3 -2.8 -4.8 0.1 -0.4 2.1 -2.3 4.6 -4.1 4.9 -3.6 10.3 -11.4 12.3 -17.4 1.4 -4.3 3 -4.7 8.6 -2.4 1.9 0.8 3.5 1.1 3.5 0.5 0 -0.5 0.4 -0.9 0.9 -0.9 1.5 0 -2.5 10.5 -6.4 17 -3.9 6.4 -13.7 16 -16.3 16 -0.9 0 -2.9 -1.8 -4.4 -3.9z"/>
  <path d="M183.5 223.1 c-3.6 -0.9 -10 -4.2 -13.5 -7 -2 -1.6 -2.3 -2.2 -1.2 -3.2 0.6 -0.7 1.2 -2 1.2 -2.9 0 -0.8 0.9 -2.1 2 -2.7 1.6 -1.1 2.7 -0.8 6.9 1.8 3.5 2.2 6.6 3.2 10.9 3.6 l6 0.6 0.4 5.3 0.3 5.4 -5 -0.1 c-2.7 -0.1 -6.3 -0.4 -8 -0.8z"/>
  <path d="M209.4 216.7 c-4.8 -5.7 -4.9 -5 1.4 -11.3 3.4 -3.5 6.2 -7.3 6.8 -9.4 1.1 -3.8 3 -4.3 8.6 -2.1 l2.7 1 -1.5 4.3 c-1.9 5.5 -7.1 12.6 -12.1 16.6 l-4 3.1 -1.9 -2.2z"/>
  <path d="M186.7 210 c-5.5 -1 -14.7 -9 -10.4 -9 1.3 0 4.2 -4.8 3.4 -5.6 -0.2 -0.2 -2 0.1 -4.1 0.7 -2.8 0.8 -4.2 0.7 -5 -0.1 -1.8 -1.8 -1.4 -16.9 0.7 -20.7 2.1 -3.9 3.7 -4.3 3.7 -0.9 0 1.6 0.7 2.6 2.2 2.9 1.2 0.4 2.4 0.5 2.6 0.2 0.4 -0.4 -2.9 -5.7 -4.1 -6.6 -0.5 -0.3 0.8 -2 2.8 -3.7 3.7 -3 10 -5.2 14.9 -5.2 2.4 0 2.6 0.3 2.6 5 0 2.8 0.5 5 1 5 0.6 0 1 -0.7 1 -1.5 0 -0.8 0.7 -1.5 1.5 -1.5 0.8 0 1.5 -0.9 1.5 -2 0 -2.4 1.1 -2.5 5 -0.5 3.5 1.8 7.3 6.7 9.1 11.8 1.5 4.2 0.6 5.6 -3.6 5.7 -1.1 0 -3.1 0.7 -4.4 1.4 -2.4 1.3 -2.3 1.4 3 3.4 4.8 1.8 5.4 2.3 5.2 4.7 -0.3 3.4 -4.7 9.9 -8.6 12.7 l-2.9 2.1 -2.2 -2.4 c-1.2 -1.3 -2.9 -3.5 -3.9 -4.9 -1.7 -2.4 -1.7 -2.4 -1.7 3.2 0 7 -0.7 7.5 -9.3 5.8z"/>
  <path d="M139 205 c0 -0.5 -0.8 -1 -1.7 -1 -2.9 0 -11.3 -6.3 -12.1 -9 -1.9 -6.8 0.9 -30.7 3.9 -32.6 1.1 -0.6 7.8 1.4 10.1 3 1.5 1.1 1.6 1.6 0.2 5.5 -1.9 5.7 -2 24 0 30.4 0.8 2.6 1 4.7 0.5 4.7 -0.5 0 -0.9 -0.4 -0.9 -1z"/>
  <path d="M143.4 204.9 c-3.4 -5.6 -4.4 -22.8 -1.7 -32.2 1.8 -6.4 1.4 -6.3 9.6 -3.5 3.4 1.2 3.8 1.6 3.2 3.8 -2.1 8 -1.6 21.8 1 28.3 0.6 1.4 0.2 1.7 -2.8 1.7 -1.9 0 -4 0.7 -4.7 1.5 -1.5 1.8 -3.6 2 -4.6 0.4z"/>
  <path d="M156.5 195.8 c-0.8 -2.8 -1.5 -7.1 -1.5 -9.5 0 -5.6 1.9 -13.3 3.4 -13.9 0.7 -0.3 3.1 0.2 5.4 1 3.7 1.3 4.2 1.3 4.2 0.1 0 -0.8 0.4 -1.5 1 -1.5 0.5 0 0.1 2.3 -1 5 -2.4 6 -2.6 12.7 -0.5 17.6 1.1 2.6 1.1 3.6 0.2 3.8 -0.7 0.2 -2.8 0.8 -4.8 1.5 -1.9 0.6 -3.8 1.1 -4.2 1.1 -0.3 0 -1.3 -2.3 -2.2 -5.2z"/>
  <path d="M121.2 193.3 c-0.1 -0.7 -0.7 -1.3 -1.3 -1.3 -0.6 0 -3.1 -1.4 -5.5 -3.2 -3.9 -2.8 -4.4 -3.6 -4.4 -7 0 -4.5 2.7 -18.4 4.1 -21 1 -1.9 4.3 -2.3 9.7 -1.2 l3 0.6 -1.4 4.1 c-1.2 3.5 -2.7 13.8 -3.7 26.2 -0.2 2.2 -0.4 3.4 -0.5 2.8z"/>
  <path d="M107.1 183.3 c0 -0.7 -0.5 -1.3 -1.1 -1.3 -0.5 0 -11.5 -7.7 -24.5 -17.2 l-23.5 -17.2 0 -3.8 c0 -3.6 0.1 -3.8 3.3 -3.8 1.8 0 3.9 0.6 4.6 1.3 1.1 1 1.4 1 1.8 0 0.3 -0.8 2.3 -1.3 4.9 -1.3 3.9 0 4.4 0.3 4.4 2.3 0 2.5 0.4 2.7 15.5 7.6 11.4 3.8 15.1 5 18.1 6.1 l2.1 0.8 -1.9 7.4 c-1 4 -2.2 10.2 -2.7 13.8 -0.5 3.6 -0.9 5.9 -1 5.3z"/>
  <path d="M217.9 178.3 c-1.5 -4.9 -7.4 -12.8 -10.6 -14.2 -2.9 -1.3 -2.5 -3.8 1.4 -7.7 l2.5 -2.5 3.6 2.8 c4.9 3.7 7.6 6.9 10.5 12.3 4.2 7.7 4.2 8.4 -0.2 10.8 -5.2 2.9 -5.7 2.8 -7.2 -1.5z"/>
  <path d="M231 175.8 c0 -3.7 -5.6 -12.7 -11.4 -18.4 -5 -4.8 -6.3 -6.7 -5.9 -8.3 0.3 -1.2 0.9 -2.1 1.4 -2.1 0.5 0 0.9 -0.6 0.9 -1.3 0 -1.7 3.8 -3.9 5.3 -3 7 4.1 15.9 14.9 19.7 23.8 2.5 5.8 2.5 6.2 -0.2 7.1 -1.2 0.3 -2.8 1.3 -3.6 2 -1.7 1.7 -6.2 1.8 -6.2 0.2z"/>
  <path d="M245.4 171.3 c-2.4 -7.6 -8.6 -17.5 -15 -24 l-7.1 -7.3 9.2 0 c8.7 0 9.2 0.1 11.7 2.8 5.1 5.6 11.6 17.1 13.1 23.2 0.6 2.3 0.1 2.8 -4.4 4.8 -6.1 2.7 -6.8 2.7 -7.5 0.5z"/>
  <path d="M258.2 162.1 c-1.3 -3.3 -4.5 -9.6 -7.2 -14 l-4.8 -8.1 7.3 0 7.4 0 3.4 5.8 c3.6 6.1 7.8 17 7.6 20 0 1 -0.3 1.2 -0.6 0.5 -0.6 -1.7 -3.5 -1.6 -5.9 0.2 -3.4 2.6 -4.8 1.8 -7.2 -4.4z"/>
  <path d="M170.1 163.1 l-3.1 -3.9 3.7 -3.1 c4.4 -3.7 14.6 -7.1 20.9 -7.1 l4.4 0 0 5.6 c0 3 -0.4 5.3 -0.9 5 -1.8 -1.2 -11.8 1.5 -16.4 4.4 -2.7 1.7 -5 3 -5.2 3 -0.2 0 -1.7 -1.8 -3.4 -3.9z"/>
  <path d="M273.1 160.1 c-1.2 -3.8 -3.7 -9.9 -5.6 -13.5 l-3.5 -6.6 31.5 0 31.5 0 0 3.4 0 3.4 -11.4 3.6 c-6.3 2 -12.3 3.6 -13.4 3.6 -2.6 0 -12.7 3.6 -15.4 5.4 -1.2 0.9 -3.7 1.6 -5.5 1.6 -3 0 -3.3 0.3 -3.3 3 0 5.6 -2.7 3.4 -4.9 -3.9z"/>
  <path d="M162.1 152.1 c-1.7 -2.1 -3.1 -4.5 -3.1 -5.2 0 -1.8 6.2 -6.1 12.5 -8.7 6.6 -2.8 12.8 -4.1 19.3 -4.2 l5.2 0 0 6 c0 5.8 -0.1 6 -2.6 6 -5.5 0 -16.5 3.3 -21.9 6.6 -3.2 1.9 -5.9 3.4 -6 3.4 -0.2 0 -1.7 -1.8 -3.4 -3.9z"/>
  <path d="M159 139.5 c0 -1.2 0.9 -4.8 2 -8.2 2.2 -6.4 3.1 -7.2 12 -10 5.4 -1.7 18.3 -3.3 21 -2.6 1.7 0.5 2 1.4 2 6.4 l0 5.9 -3.7 0 c-6.9 0 -17.7 2.9 -25.5 6.8 -7.4 3.6 -7.8 3.7 -7.8 1.7z"/>
  <path d="M164.6 120.8 c0.5 -0.7 1.6 -4 2.4 -7.2 1.4 -5.5 1.8 -6 5.5 -7.3 2.2 -0.8 8.4 -1.7 13.8 -2 l9.7 -0.6 0 6.2 0 6.1 -5.7 0 c-5.9 0 -20.8 3.1 -24.5 5.1 -1.6 0.9 -1.9 0.8 -1.2 -0.3z"/>
  <path d="M171.5 99.6 c0.7 -2.3 4.9 -15.5 9.4 -29.3 l8.3 -25.3 3.3 0 c1.8 0 3.5 0.6 3.7 1.3 0.2 0.6 0.2 13.2 0 28 l-0.4 26.7 -5.1 0.1 c-2.9 0 -8.6 0.6 -12.8 1.3 l-7.7 1.2 1.3 -4z"/>
 </g>
 <g fill="#daa520">
  <path d="M108 299.1 c0 -1.6 1.1 -6.6 2.5 -11.2 4.3 -14.6 15 -46.5 15.7 -47 0.7 -0.5 15.8 13.9 15.8 15.1 0 0.5 -1 1.6 -2.2 2.4 -1.2 0.9 -1.8 1.6 -1.3 1.6 0.6 0.1 0 0.9 -1.2 1.9 -1.2 1 -2 2.1 -1.7 2.3 0.2 0.3 -0.8 1.9 -2.4 3.5 -1.5 1.7 -2.6 3.5 -2.4 4.1 0.2 0.6 -0.6 1.3 -1.8 1.7 -1.1 0.3 -1.8 1 -1.5 1.5 0.3 0.4 -0.8 2.2 -2.4 3.9 -1.6 1.7 -2.6 3.1 -2.3 3.1 0.4 0.1 -0.3 0.9 -1.5 1.9 -1.2 1 -2 2.1 -1.7 2.3 0.2 0.3 -0.8 1.9 -2.3 3.5 -1.5 1.6 -2.8 3.5 -2.8 4.1 0 1.8 1.4 2.5 2.8 1.3 1.2 -0.9 1.3 -0.6 0.9 1.6 -0.7 4.2 -2.1 5.3 -6.3 5.3 -3.6 0 -3.9 -0.2 -3.9 -2.9z"/>
  <path d="M270 301 c0 -0.5 -0.5 -1 -1.2 -1 -0.6 0 -5 -2.8 -9.7 -6.2 -30.1 -21.6 -36.1 -26.2 -36.1 -27.2 0.1 -0.6 2.6 -2.3 5.8 -3.8 3.1 -1.5 7.4 -3.7 9.5 -4.9 l3.8 -2.3 2.2 2.5 c1.2 1.3 3.8 4.7 5.7 7.4 1.9 2.8 3.8 5.5 4.2 6 0.4 0.6 4 5.5 8 11 4 5.5 7.8 10.6 8.5 11.3 1.4 1.5 2.8 -0.2 1.6 -2 -0.4 -0.7 -0.8 -1.9 -0.9 -2.6 -0.2 -0.8 -0.6 -2.1 -1 -3 -1.6 -3.7 -1.4 -5.2 0.6 -5.2 1.6 0 2 0.7 2 3 0 1.7 0.3 3 0.8 3 1.1 0 3.2 7.5 3.2 11.5 0 3.3 -0.2 3.5 -3.5 3.5 -1.9 0 -3.5 -0.4 -3.5 -1z"/>
  <path d="M213.3 260.8 c-5.9 -4.3 -5.6 -5.9 1.5 -8 3.1 -0.9 8.6 -3.5 12.2 -5.6 l6.4 -3.9 3.8 4.6 3.8 4.5 -2.8 2.3 c-3.5 2.8 -14.5 8.2 -18 8.8 -2 0.4 -3.9 -0.4 -6.9 -2.7z"/>
  <path d="M197.3 249 c-3.3 -2.5 -5.3 -4.9 -5.3 -6.1 0 -1.1 0.6 -1.9 1.3 -1.7 4.9 0.9 20.7 -3.6 27.1 -7.8 l3.9 -2.6 2.1 2.6 c6.1 7.3 5.9 6.9 3.4 9 -4.7 3.8 -16 8.5 -24.3 10 -2.4 0.5 -4 -0.1 -8.2 -3.4z"/>
  <path d="M139.5 249.2 c-1.6 -1.5 -5.1 -5 -7.7 -7.8 l-4.7 -5 2.1 -6.7 c1.2 -3.7 2.5 -6.7 2.8 -6.7 0.4 0 2.2 2.1 4 4.8 1.8 2.6 6 7.2 9.3 10.3 l6 5.7 -2.6 2.6 c-1.4 1.4 -2.3 2.6 -2 2.6 0.3 0 0 0.7 -0.7 1.5 -1.7 2.1 -3.1 1.8 -6.5 -1.3z"/>
  <path d="M145.2 234.3 c-3.8 -3.8 -8.1 -8.9 -9.5 -11.4 l-2.5 -4.4 2.1 -7.7 c1.2 -4.3 2.7 -7.8 3.2 -7.8 0.6 0 2.5 3.2 4.4 7.1 2.2 4.4 6 9.8 10.3 14.4 l6.8 7.3 -2.9 3.1 c-1.5 1.6 -2.7 3.2 -2.4 3.4 0.2 0.2 -0.3 1 -1.1 1.6 -1.3 1.1 -2.7 0.1 -8.4 -5.6z"/>
  <path d="M191.9 236.9 c-0.3 -4.1 0.4 -9.5 1.3 -10 0.6 -0.4 3.2 -0.9 6 -1.2 2.7 -0.4 7.6 -1.9 10.8 -3.6 l5.9 -2.9 2.8 3.7 c1.5 2 3.2 3.9 3.7 4.4 1.6 1.1 -2.9 4.2 -10.3 7.2 -7.7 3.1 -20 4.6 -20.2 2.4z"/>
  <path d="M154.2 221.6 c-3.3 -3.5 -7.2 -9 -8.7 -12.1 l-2.8 -5.6 2.1 -2.1 c1.3 -1.3 3.4 -2.1 5.8 -2.2 3.6 -0.1 4 0.2 6.5 4.9 1.4 2.7 4.4 7 6.5 9.4 2.1 2.4 3.9 5 4 5.7 0.2 1.3 -5.6 8.4 -6.8 8.4 -0.3 0 -3.3 -2.9 -6.6 -6.4z"/>
  <path d="M193 218.7 l0 -5.4 3.9 -0.6 c2.1 -0.2 5.5 -1.3 7.5 -2.2 l3.8 -1.8 2.9 3.4 c1.6 1.9 2.9 3.7 2.9 4.1 0 2 -9.2 6 -16.8 7.3 l-4.2 0.7 0 -5.5z"/>
  <path d="M249 220.2 c0 -1.4 0.6 -2.2 1.6 -2.2 1.4 0 1.5 0.3 0.3 1.8 -0.7 0.9 -1.5 1.9 -1.6 2.1 -0.2 0.2 -0.3 -0.5 -0.3 -1.7z"/>
  <path d="M165.2 211.6 c-4.1 -4.4 -5.5 -6.6 -7.2 -11 -1.1 -2.9 0.1 -3.9 6.1 -5 3.4 -0.6 3.8 -0.4 4.7 2.3 0.6 1.6 2.7 4.7 4.7 6.9 l3.6 4 -2.3 1.6 c-1.2 0.9 -1.9 1.6 -1.5 1.6 0.4 0 0.3 0.9 -0.3 2 -1.6 3 -3.3 2.5 -7.8 -2.4z"/>
  <path d="M193 199.9 c0 -10.2 -0.1 -10.9 -2 -10.9 -1.1 0 -1.9 0.3 -1.9 0.8 0.3 2 -0.3 3.2 -1.7 3.2 -0.8 0 -1.3 0.4 -0.9 0.9 0.3 0.5 -0.3 1.6 -1.3 2.3 -1.1 0.7 -2 1.5 -2 1.8 0 0.3 -0.6 1.7 -1.2 3.2 -2.4 5.1 -5.8 4 -10.5 -3.5 -1.4 -2.2 -1.5 -3 -0.5 -4.2 0.7 -0.9 1.8 -1.4 2.4 -1.2 0.6 0.3 2.6 -0.4 4.4 -1.5 2.8 -1.7 4.8 -2.3 10.5 -2.7 1.6 -0.2 0.6 -3.1 -1.1 -3.1 -1 0 -2.2 -0.3 -2.6 -0.7 -0.4 -0.5 -1.1 -0.8 -1.4 -0.9 -0.4 0 -1.5 -0.4 -2.4 -0.8 -0.9 -0.4 -2.5 -0.9 -3.5 -1.1 -1 -0.2 -1.9 -0.4 -2 -0.5 -0.2 -0.2 -0.7 -0.4 -1.3 -0.5 -0.5 -0.1 -1.3 -0.4 -1.7 -0.5 -0.5 -0.1 -1.1 -0.2 -1.5 -0.1 -2.1 0.3 0.2 -4.7 4.1 -9.1 2.8 -3.2 4.7 -3.6 5.5 -1 0.3 0.9 1.6 2.9 2.8 4.4 1.3 1.4 3 3.6 3.8 4.8 2.1 3.2 4 5 5.1 5 0.5 0 0.9 -4.9 0.9 -11.1 l0 -11.1 3.2 0.8 c6.1 1.3 12.7 5.4 8.8 5.4 -0.6 0 -0.9 0.3 -0.9 0.8 0.3 2 -0.3 3.2 -1.7 3.2 -0.8 0 -1.2 0.5 -0.9 1 0.3 0.6 -0.1 1.3 -0.9 1.6 -0.9 0.3 -1.4 1 -1.1 1.4 0.3 0.5 -0.5 1.6 -1.7 2.4 -1.2 0.9 -1.8 1.6 -1.3 1.6 0.6 0 0.3 0.6 -0.5 1.3 -4.3 3.5 -0.6 4.9 5.8 2.1 2 -0.9 5.9 -2.2 8.5 -2.9 4.3 -1.1 4.9 -1.1 5.5 0.4 0.9 2.2 0.8 11.8 -0.2 12.8 -0.4 0.4 -3.5 -0.3 -6.9 -1.5 -3.4 -1.3 -6.9 -2.4 -7.7 -2.7 -0.8 -0.2 -1.5 -0.4 -1.5 -0.5 0 -0.1 -1.3 -0.4 -2.8 -0.6 l-2.8 -0.5 1.8 2.8 c1 1.5 2.3 3.4 3 4.1 0.7 0.7 1.3 1.6 1.3 2 0 0.4 1.4 2.3 3 4.2 1.6 1.9 3 4 3 4.7 0 1.7 -3.1 3.2 -8.5 4.2 l-4.5 0.8 0 -10.8z"/>
  <path d="M244.5 204.2 c2.5 -6.5 3.2 -27.2 1 -32.4 -0.5 -1.3 0.3 -2.2 3.9 -3.8 6.5 -3.1 7.9 -2.5 9.3 4 1.2 6.1 1.6 16.6 0.7 22 -0.5 2.9 -1.6 4.3 -5.7 7.1 -6.2 4.3 -10.2 5.6 -9.2 3.1z"/>
  <path d="M238.3 201.5 c-1.8 -0.8 -3.3 -1.1 -3.3 -0.8 0 0.3 -0.6 0.1 -1.2 -0.5 -0.7 -0.6 -1.7 -1.2 -2.3 -1.4 -0.5 -0.1 -0.8 -1 -0.5 -1.8 0.3 -0.8 0.5 -6.3 0.5 -12.2 0 -6 0.3 -10.8 0.7 -10.8 0.3 0 1.4 -0.7 2.2 -1.6 0.9 -0.8 3.1 -1.8 4.9 -2.1 l3.4 -0.5 1.3 7.5 c1.3 8 0.8 18.1 -1.3 22.9 -1.2 2.6 -1.3 2.6 -4.4 1.3z"/>
  <path d="M222.1 196.6 l-3.4 -1.2 0.1 -8.3 c0 -8.3 0.1 -8.3 3.2 -10.3 4.2 -2.5 6.3 -2 7.1 1.7 1.7 7.7 0.2 19.6 -2.4 19.4 -0.7 0 -2.7 -0.6 -4.6 -1.3z"/>
  <path d="M262.2 186 c-0.1 -5.2 -0.7 -12 -1.3 -14.9 -1.1 -5.2 -1 -5.6 1.2 -7.3 1.5 -1.3 3.5 -1.8 5.8 -1.6 l3.6 0.3 1.7 8 c2.8 13.4 2.5 14.9 -2.6 18.5 -2.5 1.6 -5.1 3 -6 3 -0.8 0 -1.6 0.8 -1.8 1.8 -0.2 0.9 -0.5 -2.6 -0.6 -7.8z"/>
  <path d="M277.1 180.4 c-0.1 -2.3 -0.6 -6.6 -1.2 -9.5 -1.8 -9.2 -1.9 -10.4 -1 -11.7 0.4 -0.8 2.4 -1.5 4.4 -1.7 1.9 -0.2 4.6 -1 5.9 -1.8 2.6 -1.7 14.5 -5.5 16.8 -5.5 1.8 0.1 22 -6.2 22 -6.8 0 -0.2 -3.4 -0.2 -7.5 0 -8.5 0.5 -11.5 0 -11.5 -2 0 -1.1 2.4 -1.4 11.6 -1.4 l11.5 0 -0.3 3.7 c-0.3 3.6 -1 4.3 -23.8 21 -12.9 9.5 -24 17.2 -24.7 17.3 -0.6 0 -1.4 0.6 -1.6 1.3 -0.3 0.6 -0.6 -0.7 -0.6 -2.9z"/>
  <path d="M161.3 176.7 c-1.7 -0.7 -3.4 -1.5 -3.7 -1.8 -1.6 -1.6 5.9 -13.4 10.6 -16.7 1.9 -1.4 2.3 -1.2 5.3 2.4 l3.3 3.9 -3.5 3.8 c-1.9 2.2 -3.9 5.2 -4.5 6.8 -1.1 3.1 -2.5 3.4 -7.5 1.6z"/>
  <path d="M148.5 172.4 c-2.2 -0.9 -4.5 -1.6 -5.2 -1.6 -3.2 -0.3 6.5 -16.7 13.6 -23.1 l4.2 -3.8 3.8 4.8 3.8 4.8 -5.1 5.5 c-2.9 3 -6.1 7.6 -7.2 10.2 -2.1 5.3 -2.2 5.4 -7.9 3.2z"/>
  <path d="M135.5 168 c-2.2 -1.1 -4.5 -1.9 -5.2 -2 -0.6 0 -1.4 -0.4 -1.7 -0.9 -1.2 -1.9 5.7 -14.9 11.6 -21.9 2.6 -3.1 2.8 -3.2 11.2 -3.2 4.7 0 8.6 0.2 8.6 0.4 0 0.2 -3 3.5 -6.7 7.3 -6 6 -9.2 11 -12.9 20 l-0.9 2.2 -4 -1.9z"/>
  <path d="M125 163.7 c-0.3 -0.3 -2.7 -0.8 -5.5 -1.2 -2.7 -0.3 -5.1 -0.8 -5.3 -0.9 -0.6 -0.6 3.8 -11.1 6.8 -16.3 l3 -5.3 7.7 0 7.6 0 -2 2.3 c-2.6 2.7 -9.1 14 -10.7 18.5 -0.6 1.8 -1.4 3.1 -1.6 2.9z"/>
  <path d="M205.6 163.2 c-0.3 -0.5 -3.3 -1.7 -6.6 -2.6 l-6 -1.7 0 -5 c0 -4.1 0.3 -4.9 1.9 -4.9 3.3 0 14.8 3.9 17.2 5.9 l2.3 1.8 -2.5 2.5 c-1.3 1.3 -2.5 2.8 -2.6 3.3 -0.3 1.3 -3 1.8 -3.7 0.7z"/>
  <path d="M109.7 159.8 c-1 -0.5 -2.8 -1.1 -4.1 -1.4 -1.3 -0.2 -4.3 -1.3 -6.8 -2.4 -2.5 -1.1 -5.4 -2.1 -6.4 -2.3 -1 -0.2 -3.2 -0.9 -4.7 -1.5 -1.5 -0.7 -4.2 -1.4 -6 -1.7 -1.7 -0.4 -3.7 -1.1 -4.4 -1.7 -0.7 -0.6 -1.3 -0.7 -1.3 -0.3 0 0.4 -0.6 0.3 -1.3 -0.3 -0.7 -0.6 -2.8 -1.4 -4.7 -1.7 -1.9 -0.3 -4.7 -1.2 -6.3 -2 -3.9 -1.9 -3.3 -0.3 1.1 2.9 3 2.3 3.2 2.6 1.2 2.1 -6.5 -1.9 -7 -2.3 -7 -6 l0 -3.5 31 0 30.9 0 -2.1 3.5 c-1.1 2 -3.2 6.7 -4.7 10.4 -2.3 6 -2.9 6.8 -4.4 5.9z"/>
  <path d="M211.7 151.5 c-2.2 -1.2 -7.2 -3 -11.3 -4 l-7.4 -1.7 0 -6.1 0 -6 5.3 0.6 c6.9 0.9 16.2 4.1 21.1 7.4 l4 2.6 -2.2 1.7 c-1.1 1 -1.8 2 -1.5 2.4 0.3 0.3 -0.2 0.8 -1.1 1.2 -0.9 0.3 -1.4 1 -1.1 1.4 0.3 0.4 -0.1 1.2 -0.8 1.7 -0.8 0.7 -2.5 0.3 -5 -1.2z"/>
  <path d="M224.9 141.8 c-5.2 -4.2 -17.8 -9 -27.1 -10.3 l-4.8 -0.7 0 -5.9 0 -5.9 4.8 0 c5.6 0.1 11.1 1.2 18.6 4.1 l5.6 2 2.2 7.5 c2 6.3 2.6 7.4 4.6 7.4 1.2 0 2.2 0.6 2.2 1.4 0 2.2 -3.5 2.5 -6.1 0.4z"/>
  <path d="M247.1 141.9 c-1 -1.7 -0.8 -1.9 1.9 -1.9 1.9 0 3 0.5 3 1.4 0 2.2 -3.5 2.6 -4.9 0.5z"/>
  <path d="M260.8 143.3 c-1 -0.2 -1.8 -1.1 -1.8 -1.9 0 -2.1 1.8 -1.7 3 0.6 0.6 1.1 0.9 1.9 0.8 1.9 -0.2 -0.1 -1.1 -0.3 -2 -0.6z"/>
  <path d="M164 126 c0 -0.5 0.9 -1.4 1.9 -1.9 1.6 -0.9 1.8 -0.8 1.4 0.9 -0.5 2 -3.3 2.9 -3.3 1z"/>
  <path d="M219.8 121.4 c-1.3 -1.2 -19.4 -5.4 -23.6 -5.4 -3.6 0 -4.3 -0.3 -3.8 -1.6 0.3 -0.9 0.6 -3.6 0.6 -6.1 l0 -4.6 7.3 0.6 c3.9 0.4 9.2 1.2 11.6 1.9 4.3 1.3 4.5 1.6 6.8 8.2 2.2 6.3 2.5 8.5 1.1 7z"/>
  <path d="M210.7 103 c-1.5 -0.5 -6.1 -1.1 -10.2 -1.5 l-7.6 -0.7 0.1 -26 c0.1 -14.3 -0.1 -26.2 -0.4 -26.5 -0.4 -0.4 -1 1.2 -2.1 5.7 -0.1 0.3 -0.5 1.3 -0.9 2.3 -1.3 2.8 -2.6 1.9 -2.6 -1.8 0 -2.4 0.5 -3.5 1.5 -3.5 0.9 0 1.5 -0.9 1.5 -2.5 0 -2.2 0.4 -2.5 3.3 -2.5 l3.3 0 8.8 27.7 c4.8 15.3 8.9 28.4 9.1 29.1 0.5 1.4 0.2 1.4 -3.8 0.2z"/>
 </g>
 <g fill="#800000">
  <path d="M175 374.2 c0 -0.6 1.1 -1.3 2.5 -1.6 1.4 -0.4 3.4 -2.1 4.5 -3.9 2.8 -4.5 2.6 -5.7 -0.8 -4.8 -2.9 0.9 -7.2 -0.2 -8.4 -2.2 -0.4 -0.7 -0.8 -2.7 -0.8 -4.5 0 -4.3 3.8 -8.2 8 -8.2 1.9 0 4 0.9 5.5 2.5 4.8 4.7 2.3 18.3 -3.9 21.3 -3.5 1.8 -6.6 2.4 -6.6 1.4z m7.8 -12.8 c4.1 -2.8 2 -10.4 -2.8 -10.4 -4.1 0 -6.5 7.4 -3.4 10.4 1.9 2 3.4 2 6.2 0z"/>
  <path d="M194.1 372.6 c-3.2 -3.4 -4 -13.6 -1.4 -18.5 2.3 -4.5 6.4 -5.9 9.9 -3.6 3.5 2.3 4.6 5.9 4.2 13.9 -0.3 5.7 -0.8 7.2 -2.7 8.7 -3.2 2.6 -7.3 2.4 -10 -0.5z m9.3 -4.6 c1.2 -6.4 -0.8 -15.7 -3.6 -16.6 -3.3 -1 -4.8 2 -4.8 9.7 0 8.7 1.4 12.1 4.9 11.7 2.2 -0.3 2.7 -1 3.5 -4.8z"/>
  <path d="M158 372.3 c-4.4 -0.5 -6.5 -2.3 -2.7 -2.3 2 0 2.8 -0.6 3.1 -2.2 3.4 -16 3.4 -17.2 0.1 -16.4 -4.2 1.1 -2.8 -0.8 2 -2.5 2.4 -0.9 4.6 -1.5 4.8 -1.3 0.2 0.2 -0.4 4.6 -1.4 9.7 -2.4 12 -2.4 13.2 0.4 14.5 l2.2 1.1 -2.5 -0.1 c-1.4 -0.1 -4.1 -0.3 -6 -0.5z"/>
  <path d="M219.9 371.6 c0.8 -0.9 1.1 -2.6 0.7 -4 -0.6 -2.4 -0.9 -2.5 -5.7 -1.9 -4.9 0.6 -5.1 0.5 -4.4 -1.6 1.9 -5.9 7.8 -17.2 8.8 -16.8 0.7 0.2 1.8 3.5 2.5 7.3 1.6 9 1.5 8.9 3.4 7.1 1.4 -1.5 1.7 -1.5 2.2 -0.1 0.4 1.1 -0.1 1.8 -1.4 2.1 -2.3 0.6 -2.9 5.8 -0.7 6.6 1.8 0.6 0.7 1.4 -3.3 2.2 -3.1 0.7 -3.3 0.6 -2.1 -0.9z m-2.2 -8.2 c1.8 -0.5 2.1 -1.1 1.6 -4.2 -0.6 -4.5 -1.2 -6.6 -1.7 -6.1 -0.3 0.2 -1.4 2.8 -2.5 5.7 -2.2 5.4 -1.9 5.8 2.6 4.6z"/>
  <path d="M135.7 354.9 c-3.8 -0.9 -7.1 -2 -7.4 -2.3 -0.3 -0.2 -3 0.4 -6 1.6 -6.7 2.5 -11.3 2 -20.4 -2.3 -7.3 -3.5 -6.8 -4.6 2.3 -5.5 8.2 -0.9 8.8 -1.3 4.5 -3.5 -3.3 -1.7 -4.4 -1.8 -10 -0.8 -4.6 0.8 -7.3 0.8 -10.4 0 -4.3 -1.2 -16.3 -8.6 -16.3 -10.1 0 -1.3 8.4 -2.3 12.5 -1.6 4.5 0.9 4.4 -0.2 -0.6 -3.6 -2.9 -2.1 -5.1 -2.8 -8.7 -2.8 -7.9 0 -12.1 -1.8 -18.1 -7.5 -3.1 -3 -5.2 -5.7 -4.8 -6.1 0.4 -0.4 3.5 -0.2 6.8 0.5 3.4 0.7 6.4 1 6.7 0.7 1.5 -1.5 -5.2 -6.4 -10.4 -7.5 -7.8 -1.8 -12.4 -6 -14.5 -13.3 l-0.8 -2.9 3.3 2.1 c3.3 2 6.6 2.7 6.6 1.3 -0.1 -1.6 -3.9 -5.3 -6.4 -6.2 -1.4 -0.6 -3.1 -2.3 -3.9 -3.8 -1.9 -3.7 -3 -11.3 -1.7 -11.3 2.1 0 7.9 6.3 8.6 9.3 0.7 3.2 6.2 12.2 7 11.4 0.2 -0.2 0 -2.5 -0.5 -5.1 -0.5 -2.5 -0.5 -4.9 -0.1 -5.1 1.4 -0.9 6.8 4.4 8.9 8.8 1.3 2.8 2.1 6.3 2.1 9.8 0 4.6 0.5 5.9 3 8.9 3.3 3.9 3.3 3.8 3 -5.7 -0.1 -3.6 0.2 -6.3 0.8 -6.3 1.6 0 8.3 8 10.3 12.4 1 2.2 1.9 5.2 1.9 6.6 0 4.8 2 9.8 4.6 11.5 3.5 2.3 3.9 1.4 1.9 -3.8 -0.9 -2.4 -1.5 -5.7 -1.3 -7.2 l0.3 -2.9 5.5 4.5 c6.7 5.5 9.6 9.6 11.6 16.6 1.3 4.6 2.1 5.6 5.5 7.3 2.1 1.1 3.9 1.9 3.9 1.6 0 -0.2 -1.3 -3 -3 -6.1 -4.3 -8.2 -4 -9.1 2 -6 6.5 3.3 11.3 8.2 12.8 13.2 1.4 4.8 1.9 5.2 9.2 8.2 9.9 4.1 9.7 5.6 -0.3 3z"/>
  <path d="M242.3 354.4 c0.4 -0.4 3.9 -2.3 7.9 -4.3 6.6 -3.3 7.4 -4 8.8 -7.9 1.8 -5.3 5.9 -9.6 12.2 -12.8 2.6 -1.3 5 -2.4 5.2 -2.4 0.8 0 -1.6 6.2 -3.7 9.8 -2.5 4.1 -1.7 5 2.4 2.6 2.5 -1.5 3.6 -3.3 5.3 -8.6 1.2 -3.7 3.1 -7.7 4.2 -8.9 2.7 -3 11.4 -9.9 12.5 -9.9 1.1 0 0.3 5.6 -1.7 11.3 -0.7 2 -0.9 3.7 -0.5 3.7 1.6 0 6 -4.9 6.5 -7.2 2.6 -13.5 3.7 -16.1 9.8 -22.1 4.1 -3.9 5.1 -2.7 4.3 4.9 -0.7 7 0.1 8 3.3 3.9 1.3 -1.6 2.2 -4.9 2.7 -9.2 0.9 -8.6 1.5 -10 5.9 -14.5 5.1 -5.2 5.9 -4.9 5.1 2 l-0.6 5.7 3.5 -5.5 c2 -3 3.6 -6.3 3.6 -7.4 0 -1 1.9 -3.7 4.3 -6 l4.2 -4 0.3 3.6 c0.5 5.3 -2.1 10.5 -6.1 12.4 -3.7 1.8 -7.9 7.4 -5.5 7.4 0.7 0 3 -0.9 5.1 -2 4.1 -2.2 4.4 -1.8 2.2 3.2 -2.2 5.3 -7.5 9.5 -13.8 10.8 -3.7 0.7 -6.3 2 -8.2 4 -1.6 1.7 -2.6 3.2 -2.3 3.5 0.3 0.3 3.6 -0.1 7.4 -0.9 3.8 -0.8 7 -1.3 7.3 -1.1 0.6 0.7 -4.3 6.1 -8.7 9.5 -4.3 3.3 -9.4 4.9 -16.7 5 -2.9 0 -5 0.9 -7.5 3 l-3.5 2.9 7 0.1 c9.9 0 10.7 1 4.8 5.2 -9.3 6.8 -14.3 8.2 -23.4 6.6 -4.9 -0.8 -6.2 -0.7 -9.5 1 l-3.9 2 3.5 0.6 c1.9 0.3 5.6 0.8 8.3 1.1 2.6 0.4 4.7 1.1 4.7 1.6 0 0.6 -2.9 2.4 -6.5 4.1 -7.5 3.5 -13.8 3.9 -19.9 1.4 -3.6 -1.5 -4.2 -1.5 -10.3 0.4 -6.4 2 -11.3 2.6 -10 1.4z"/>
  <path d="M172.5 340.9 c-51.8 -7.1 -95 -38.1 -118.6 -85.1 -5.8 -11.6 -10 -23.8 -13 -37.9 -3.1 -14.2 -3.3 -42.6 -0.5 -57.4 12.9 -69.6 69.1 -120.3 139.9 -126.5 45.7 -4 91 13.5 123.6 47.6 39.7 41.5 52.8 100.3 34.6 154.9 -17.3 52.3 -60.8 91 -115.3 102.5 -11.3 2.4 -39.4 3.5 -50.7 1.9z m-37 -59 l23.6 -17 6.2 2 c17.4 5.6 37.8 5.6 54.4 -0.1 l6.1 -2.1 4.9 3.5 c2.6 1.9 11.3 8.2 19.3 13.9 8 5.8 16.7 12 19.4 13.8 l4.8 3.3 -0.6 -2.8 c-0.4 -1.6 -4.4 -14.3 -9 -28.3 l-8.3 -25.5 4.5 -6 c10.2 -13.7 16.2 -31.5 16.2 -47.7 l0 -9.8 23.5 -17.1 c12.9 -9.5 23.7 -17.6 24.1 -18.1 0.3 -0.5 -11.6 -0.9 -29.3 -0.9 l-29.8 -0.1 -2.9 -4.6 c-9.1 -14.3 -27.2 -27.7 -45.5 -33.7 l-6.4 -2.1 -8.4 -26.5 c-4.7 -14.6 -8.8 -26.9 -9.3 -27.3 -0.4 -0.5 -4.7 11.4 -9.6 26.4 l-8.9 27.2 -6.5 2.2 c-19 6.4 -34.2 17.6 -45.4 33.3 l-3.8 5.2 -29 0 c-18.5 0 -28.8 0.4 -28.6 1 0.2 0.5 10.7 8.5 23.3 17.8 l23 16.8 0.2 8.9 c0.5 18.7 5.8 34.4 16.6 49.2 l4.6 6.1 -1.4 4.4 c-0.7 2.3 -4.7 14.8 -8.9 27.6 -7.9 24.3 -7.9 24.2 -7.1 24.2 0.3 0 11.1 -7.7 24 -17.1z"/>
  <path d="M180.5 267.6 c-8.3 -1.3 -15.4 -3.3 -16.8 -4.6 -0.5 -0.4 1.6 -2.7 4.7 -4.9 5.3 -4 5.8 -4.1 9.4 -3.1 4.8 1.3 24.6 1.3 29.4 0 3.6 -1 4.1 -0.8 9.9 3.2 l6 4.3 -3.3 1.4 c-9.5 3.9 -27.7 5.6 -39.3 3.7z"/>
  <path d="M183.3 253.1 c-2.4 -0.4 -4.5 -1 -4.8 -1.3 -0.3 -0.3 2.6 -2.9 6.5 -5.8 7.9 -5.9 7.2 -5.9 16.3 0.5 6.1 4.3 6.5 5 4.1 5.9 -2.7 1 -17.7 1.5 -22.1 0.7z"/>
  <path d="M125 233 c-5.7 -8.3 -9.5 -16.9 -12 -26.5 -2.1 -8.2 -3.9 -25.5 -2.6 -25.5 0.4 0 3.1 1.8 6 4 5.1 3.9 5.4 4.3 6.1 9.8 0.9 7.6 4.9 19.6 8.5 25.5 1.7 2.7 3 5.4 3 6.1 0 1.7 -3.1 10.9 -4 11.9 -0.5 0.5 -2.7 -1.9 -5 -5.3z"/>
  <path d="M253 232.5 l-2.2 -6.6 4.1 -8.2 c4 -8.2 7.1 -18.2 7.1 -23 0 -4.1 0.9 -5.5 5.8 -9 8.1 -5.8 7.6 -6.1 6.9 3.9 -1.2 16.4 -6.2 31.2 -14.8 43.4 -2.3 3.3 -4.3 6 -4.5 6 -0.1 0 -1.2 -2.9 -2.4 -6.5z"/>
  <path d="M131.6 215.1 c-3.3 -7 -7.4 -21.6 -6.3 -22.7 0.8 -0.9 14.6 9.6 15 11.4 0.3 1.8 -2.8 14.5 -4.3 17.1 -0.6 1.2 -1.7 -0.2 -4.4 -5.8z"/>
  <path d="M246.7 213 c-1.5 -4.3 -2.4 -8.6 -2.1 -9.4 0.5 -1.2 13.7 -11.6 14.8 -11.6 1 0 -1.9 12.4 -4.5 19 -4.3 11.2 -4.9 11.4 -8.2 2z"/>
  <path d="M123 142.3 c0 -1 5.1 -7.4 10.5 -13.2 8.7 -9.3 22.6 -18 34.3 -21.5 4 -1.1 5.3 -1.2 4.9 -0.3 -0.2 0.6 -1.2 3.7 -2.1 6.8 -1.5 5.2 -1.9 5.8 -5.8 7.4 -7.4 2.9 -15.1 8.2 -22 14.9 l-6.7 6.6 -6.6 0 c-3.6 0 -6.5 -0.3 -6.5 -0.7z"/>
  <path d="M142 141 c2.5 -4.7 22.8 -18.5 24.6 -16.7 1 1 -3.7 14.1 -5.9 16.5 -1.8 2 -3 2.2 -10.9 2.2 -8.5 0 -8.8 -0.1 -7.8 -2z"/>
  <path d="M224.8 141.9 c-1.6 -0.9 -7.4 -16.7 -6.4 -17.6 1.3 -1.4 15.4 7.8 21.6 14.1 l4.4 4.6 -8.9 0 c-5 0 -9.8 -0.5 -10.7 -1.1z"/>
  <path d="M240.9 135.7 c-4.9 -4.7 -10.5 -8.8 -16 -11.7 -8.3 -4.4 -8.4 -4.6 -10.6 -10.5 -1.2 -3.3 -2.2 -6.3 -2.2 -6.7 -0.2 -1.4 10.5 2.5 18.3 6.5 4.3 2.3 10.7 6.6 14.2 9.5 6 4.9 17.4 17.6 17.4 19.4 0 0.4 -3 0.8 -6.7 0.8 l-6.8 -0.1 -7.6 -7.2z"/>
  <path d="M357.3 266.3 c-2 -0.8 -1.5 -2.3 0.7 -2.3 3 0 4.7 -5 2.4 -6.7 -2.6 -1.9 -3.6 -1.6 -8 1.7 -4.6 3.5 -7.6 3.8 -10.4 1 -2.4 -2.4 -2.5 -3.9 -0.6 -8.4 1.6 -3.9 2.8 -4.8 5 -4 2.2 0.9 2 2.4 -0.4 2.4 -4.1 0 -5.3 6.4 -1.6 8.2 2.1 0.9 3.1 0.6 6.7 -2.1 2.4 -1.7 5.3 -3.1 6.5 -3.1 4.8 0 6.9 5.6 4.1 10.9 -1.3 2.6 -2.4 3.2 -4.4 2.4z"/>
  <path d="M21 259.4 c-2.5 -6.9 -2.1 -9.7 2 -11.4 4 -1.7 7.8 -0.1 9.3 4 0.6 1.7 1.7 3 2.4 3 2.5 0 6.3 -2.4 6.3 -3.9 0.1 -1.3 0.3 -1.2 1.5 0.3 1.7 2.2 2 6 0.5 5.1 -1.4 -0.8 -17.2 5.2 -18.7 7.1 -0.9 1.3 -1.5 0.5 -3.3 -4.2z m7.5 -1.8 c4 -1.7 4.2 -2.5 1.7 -5.6 -3.3 -4 -10.3 0 -8.7 5 0.8 2.4 2.4 2.5 7 0.6z"/>
  <path d="M363.8 250.3 c-2.1 -0.5 -2.4 -2.3 -0.4 -2.3 1.8 0 3.2 -1.8 4 -5.1 0.5 -2.4 0.2 -2.7 -3.5 -3.7 -4.6 -1.2 -5.6 -0.1 -4.5 4.3 0.6 2.4 0.5 2.5 -2.1 1.9 -3.7 -0.9 -3.9 -1.2 -2.1 -2.7 0.9 -0.6 1.9 -2.1 2.2 -3.2 0.5 -1.8 0 -2.3 -3.6 -3.2 -4.7 -1.3 -5.4 -1 -6.3 2.8 -0.4 1.8 -0.1 3.1 1 4.3 2.2 2.2 1.2 3.2 -1.9 1.8 l-2.4 -1.1 2 -6.8 c2.4 -7.8 2.6 -8.2 3.7 -6.5 1 1.7 17.6 6.3 19.7 5.5 1.3 -0.5 1.6 -0.3 1.2 0.8 -0.3 0.8 -1.4 4.3 -2.3 7.7 -1 3.4 -2 6.1 -2.4 6.1 -0.3 -0.1 -1.4 -0.3 -2.3 -0.6z"/>
  <path d="M16.7 242 c-3.5 -2.7 -4.5 -8.1 -2.2 -11.6 2.1 -3.3 7.2 -5.4 12.9 -5.4 3.7 0 4.8 0.5 7 3.1 1.5 1.8 2.6 4.3 2.6 6.1 0 7.6 -13.8 12.9 -20.3 7.8z m10.6 -2.1 c7.1 -1.9 10.4 -8.4 5.6 -11 -4.5 -2.4 -16.1 1 -17.4 5.1 -1.8 5.8 3.1 8.3 11.8 5.9z"/>
  <path d="M371 230.2 c0 -0.5 -1.9 -1.2 -4.2 -1.6 -13 -2 -16.8 -2.9 -16.8 -4 0 -0.6 4.6 -2.9 10.1 -5.1 9.4 -3.6 9.9 -4 7.3 -4.7 -1.6 -0.5 -5.9 -1 -9.7 -1.1 -5.1 -0.1 -6.6 -0.5 -6.2 -1.5 0.3 -0.8 0.5 -2.1 0.5 -2.9 0 -1.4 0.2 -1.5 1.8 -0.1 1.9 1.7 17.3 4.4 19.7 3.4 1.1 -0.4 1.5 0.1 1.5 1.8 0 2.4 -1.7 3.3 -16.5 9.1 -1.7 0.7 -1.5 0.9 1.5 1.6 1.9 0.5 5.6 0.9 8.3 1.1 3.7 0.2 4.7 0.6 4.7 2 0 0.9 -0.4 2 -1 2.3 -0.5 0.3 -1 0.2 -1 -0.3z"/>
  <path d="M10.6 222.5 c-1.3 -3.4 -0.7 -5.3 1.4 -4.8 1 0.3 5.8 0 10.5 -0.7 8.3 -1.2 8.5 -1.3 8.5 -3.9 0 -3.1 -1.6 -5.1 -4.2 -5.1 -3 0 -2 -1.7 1.3 -2.2 3.5 -0.5 3.6 -0.5 4.7 8 0.8 5.7 0.7 6.2 -0.9 5.7 -2.4 -0.8 -19.1 2.2 -19.9 3.6 -0.5 0.7 -0.9 0.5 -1.4 -0.6z"/>
  <path d="M8.8 206.9 c-0.4 -2.3 -0.1 -2.9 0.9 -2.4 1.4 0.5 9.3 -3.4 9.3 -4.6 0 -1.2 -7.9 -4.1 -9.4 -3.6 -1.2 0.5 -1.6 -0.1 -1.6 -2.3 l0 -2.9 3.3 2.2 c6.2 4.2 11.3 6 15.1 5.3 2 -0.4 3.6 -1.2 3.7 -1.9 0.1 -1.6 1.7 3.3 1.8 5.8 0.1 1.5 -0.2 1.6 -1.1 0.7 -2.5 -2.5 -8.8 -1.4 -15.3 2.7 l-6.3 4 -0.4 -3z"/>
  <path d="M373.4 206 c-0.5 -0.5 -5.5 -1 -11.2 -1.2 -8.2 -0.2 -10.2 -0.5 -9.7 -1.6 0.3 -0.7 0.5 -2.1 0.5 -3 0 -1.4 0.2 -1.4 0.9 -0.3 0.6 1 3.7 1.4 11.5 1.5 l10.6 0.1 0 2.8 c0 2.8 -0.9 3.4 -2.6 1.7z"/>
  <path d="M365.1 195.7 c-0.6 -0.8 -1.4 -3.1 -1.9 -5.3 -0.7 -3.4 -1.2 -3.9 -3.9 -4.2 -1.8 -0.2 -3.7 0.3 -4.7 1.3 -1.5 1.5 -1.6 1.3 -1.5 -2.7 0 -2.4 0.3 -3.7 0.6 -3 0.6 1.7 19.4 1.7 21.1 0 0.9 -0.9 1.2 0.3 1.2 5.4 0 4.7 -0.5 7.1 -1.6 8.2 -1.9 1.9 -7.7 2.1 -9.3 0.3z m8.4 -3.3 c0.9 -0.9 1.5 -2.6 1.3 -3.8 -0.3 -1.8 -1 -2.1 -5.3 -2.1 -4.7 0 -5 0.1 -4.7 2.4 0.5 5 5.3 6.9 8.7 3.5z"/>
  <path d="M8.2 181 c0.3 -5 0.7 -9.3 1 -9.5 0.2 -0.2 1.7 -0.1 3.2 0.3 l2.9 0.8 -2.7 1.7 c-4.3 2.9 -3.3 4.3 3.5 5.1 9.1 0.9 13.4 0.7 14.7 -0.6 0.9 -0.9 1.2 -0.9 1.2 0.3 0 3.3 -1.3 5.9 -2.4 5 -0.6 -0.5 -5.3 -1.1 -10.3 -1.3 -9.3 -0.4 -9.3 -0.4 -9.3 2 0 1.5 0.7 2.6 2 2.9 3.1 0.8 2.4 2.3 -1.1 2.3 l-3.2 0 0.5 -9z"/>
  <path d="M364.2 176 c-0.9 -1.1 -1.9 -3.3 -2.2 -4.8 -0.5 -2.4 -1 -2.7 -4.4 -2.6 -2.1 0.1 -4.2 0.7 -4.6 1.4 -0.5 0.8 -0.9 0.4 -1.3 -1.2 -1.1 -4 -0.8 -4.4 2.6 -4 4.6 0.5 17.9 -1.5 18.7 -2.8 1 -1.6 2 2.4 2 8.1 0 3.2 -0.6 5.1 -1.8 6.2 -2.5 2.3 -6.9 2.1 -9 -0.3z m6.9 -2 c1.2 -0.7 1.9 -2.1 1.9 -4.1 0 -3 -0.1 -3 -4.7 -2.7 -5.5 0.3 -6.7 2.4 -3.4 5.7 2.4 2.4 3.4 2.5 6.2 1.1z"/>
  <path d="M31 170.2 c0 -1.1 -18.6 -4.3 -20.4 -3.6 -1.1 0.4 -1.1 -0.8 -0.1 -6.6 0.7 -3.9 1.5 -7.3 1.8 -7.6 0.3 -0.3 1.5 -0.3 2.7 0.1 2.1 0.7 2.1 0.7 -0.4 3 -1.5 1.4 -2.6 3.5 -2.6 4.9 0 2.1 0.6 2.6 3.4 3.2 1.9 0.3 3.9 0.3 4.5 -0.1 1.5 -0.8 1.4 -3.8 -0.1 -5.3 -0.9 -0.9 -0.5 -1.2 2 -1.2 3.5 0 4.1 1 1.7 3 -2.2 1.8 -1.9 5 0.4 5 1 0 3.2 0.3 4.8 0.6 2.8 0.6 3.1 0.4 3.5 -2.7 0.4 -2.3 0 -3.7 -1.4 -5.1 -2.4 -2.4 -1.8 -3.3 1.7 -2.4 1.7 0.4 2.5 1.2 2.1 2.1 -0.2 0.7 -0.8 4.1 -1.2 7.4 -0.3 3.4 -1.1 6.1 -1.5 6.1 -0.5 0 -0.9 -0.4 -0.9 -0.8z"/>
  <path d="M350 159.6 c0 -0.8 -0.3 -2.2 -0.6 -3 -0.5 -1.2 -0.2 -1.5 0.9 -1 2.2 0.8 17.9 -2.5 19.8 -4.2 1.5 -1.3 1.7 -1.2 2.3 0.8 1 3.8 0.7 4.6 -1.4 4.1 -2.2 -0.6 -17 2.4 -18.4 3.8 -1.5 1.3 -2.6 1.1 -2.6 -0.5z"/>
  <path d="M348.4 151.3 c-0.3 -1 -1 -2.9 -1.4 -4.3 -1.9 -5.7 -2.1 -8 -0.6 -7.4 1.7 0.7 18.9 -4.5 19.8 -5.9 0.4 -0.7 1.1 0 1.7 1.6 1.4 3.6 1.4 3.7 -0.2 3.1 -1.2 -0.4 -18.5 4 -19.5 5.1 -0.2 0.2 0 1.6 0.5 3.2 0.7 2 1.7 2.9 3.6 3.1 3 0.4 3.5 1.7 1.1 2.6 -2.7 1 -4.4 0.7 -5 -1.1z"/>
  <path d="M23.5 150.5 c-7.3 -2.6 -10.3 -8.6 -7.3 -15 1.2 -2.6 2.4 -3 4.7 -1.6 1.2 0.8 0.9 1.2 -1.3 2.2 -2.2 1 -2.6 1.8 -2.4 4.2 0.4 4.4 4.5 7 11.8 7.5 5.6 0.4 6 0.3 7.1 -2.1 1 -2.2 0.9 -3.1 -0.5 -5.2 -2.1 -3.2 -1.9 -3.6 1.3 -2.4 2 0.8 2.2 1.3 1.6 4.5 -0.8 4.7 -2.3 7 -5.2 8.3 -3.1 1.4 -4.9 1.3 -9.8 -0.4z"/>
  <path d="M38.8 135.1 c-0.4 -1.1 -15.4 -7.1 -17.9 -7.1 -1 0 -1.9 -0.3 -1.9 -0.7 0.1 -1.5 2.9 -5.8 3 -4.5 0 1.1 5.6 4.2 7.5 4.2 0.7 0 3.5 -6.4 3.5 -7.9 0 -1.3 -6.7 -3.4 -8.1 -2.5 -0.9 0.5 -1 -0.1 -0.5 -2.2 0.9 -3.4 2.6 -5.6 2.6 -3.3 0 1.7 14.4 7.9 18.1 7.9 2.2 0 2.2 0 0.9 3.6 -0.9 2.4 -1.2 2.5 -2.3 1.1 -0.7 -0.8 -2.9 -2.2 -4.9 -3 l-3.6 -1.5 -1.7 4.1 c-1.6 3.9 -1.5 4.2 0.1 5.4 1 0.7 3.2 1.6 5.1 1.9 3.4 0.6 3.7 1.1 2.7 3.8 -0.7 1.7 -2 2.1 -2.6 0.7z"/>
  <path d="M342.6 133.8 c-0.8 -3.3 -0.7 -3.8 0.7 -3.2 1.5 0.5 13.9 -3.9 17.6 -6.3 2 -1.3 2.5 -1.3 3.2 -0.2 1.4 2.2 1 3.9 -0.8 3.9 -2.6 0 -18.3 6.1 -18.3 7.1 0 1.8 -1.8 0.8 -2.4 -1.3z"/>
  <path d="M339.1 124.4 c-1 -2.3 -1 -2.6 0.4 -2 0.9 0.3 3.4 -0.3 5.5 -1.4 l3.9 -2 -1.7 -4 c-0.9 -2.2 -2.1 -4 -2.7 -4 -0.5 0 -2.9 1.1 -5.2 2.5 -4.1 2.3 -4.3 2.3 -5.3 0.5 -1.3 -2.5 -1.3 -3 0.4 -3 2.6 0 17 -7 18 -8.7 0.7 -1.4 1.1 -1.3 2.2 0.8 1.6 2.8 1.8 4.2 0.5 3.4 -1.2 -0.7 -8.1 2.5 -8.1 3.7 0 0.8 2.8 6.7 3.5 7.6 0.7 0.8 7.5 -3.3 7.8 -4.7 0.2 -1.1 0.8 -0.6 2 1.7 1.7 3.1 1.7 3.2 -0.3 3.2 -1.1 0 -5.7 1.9 -10.3 4.2 -4.5 2.4 -8.5 4.4 -8.8 4.6 -0.3 0.1 -1.1 -0.9 -1.8 -2.4z"/>
  <path d="M47.7 115.6 c-0.6 -1.5 -15.3 -9.9 -17.4 -9.9 -1.7 0 -1.7 -2.1 0 -3.5 0.7 -0.6 5.6 -1.3 10.8 -1.4 l9.4 -0.3 -6 -3.4 c-3.3 -1.9 -6.8 -3.4 -7.7 -3.3 -1.4 0.1 -1.5 -0.3 -0.6 -2.4 1.2 -2.6 2.8 -3.2 2.8 -1.1 0 0.7 4.1 3.5 9 6.2 5 2.7 8.9 5.4 8.7 6 -0.2 0.5 -5.3 1.2 -11.3 1.5 l-10.9 0.5 6.6 3.8 c3.6 2 7.3 3.7 8.2 3.7 2 0 2.1 0.9 0.3 3.3 -1.1 1.4 -1.5 1.5 -1.9 0.3z"/>
  <path d="M324.5 98.4 c-1.7 -2.7 -1.9 -3.8 -0.5 -2.9 1.3 0.8 15.4 -7.8 17.3 -10.5 1.2 -1.7 1.5 -1.6 3.9 2.3 3.9 6.2 4.4 9.1 1.9 11.6 -3.1 3.1 -7.4 2.7 -10.4 -0.9 -1.4 -1.6 -3 -3 -3.5 -3 -0.6 0 -2.4 1.3 -4.1 2.9 l-3 2.8 -1.6 -2.3z m19.6 -1.4 c2.1 -1.2 2.5 -4.1 0.9 -7 -1 -1.9 -1.1 -1.9 -4.6 0.2 -4.2 2.4 -5.1 4.2 -3.4 6.3 1.5 1.7 4.3 1.9 7.1 0.5z"/>
  <path d="M59 97 c0 -1.4 -10.7 -9.2 -15.7 -11.5 -2.2 -1 -2.2 -1.2 -0.6 -3.4 1.3 -2 1.7 -2.1 2.5 -0.8 0.9 1.7 13.1 10.5 16.1 11.6 1.8 0.7 1.8 0.8 -0.2 3.1 -1.4 1.8 -2 2 -2.1 1z"/>
  <path d="M312.7 83.2 c-4.1 -4.8 -4.6 -5.8 -3 -6.1 1.5 -0.2 13.2 -9.5 14.1 -11.1 1.7 -3.2 2.1 -3.1 5.8 1 5.2 5.7 5.8 6.8 4.4 8.6 -1.8 2.1 -3.2 1.7 -2.5 -0.6 0.8 -2.4 -1.8 -7 -3.8 -7 -2.1 0 -6 4.7 -5.4 6.4 0.4 0.9 1.6 1.6 2.7 1.6 2.5 0 2.6 1.2 0.2 3.3 -2.4 2.2 -3.5 2.1 -2.8 -0.1 0.4 -1.1 -0.1 -2.5 -1.1 -3.5 -1.7 -1.4 -2 -1.3 -5 1.4 -3.9 3.4 -3.9 3.6 -1.2 6.5 1.7 1.8 2.9 2.2 5.3 1.8 l3.1 -0.5 -2.4 2 c-1.3 1.2 -2.6 2.1 -3 2 -0.3 0 -2.8 -2.6 -5.4 -5.7z"/>
  <path d="M59 86.1 c-8.1 -4.3 -10.3 -12.4 -5.1 -18.3 2.5 -2.8 3.1 -3 4.5 -1.9 2.1 1.8 2 3 -0.3 2.4 -2.2 -0.6 -5.1 2.1 -5.1 4.9 0 4.3 8 11.8 12.7 11.8 3.1 0 5.5 -3.3 4.7 -6.4 -0.7 -2.9 0.6 -3.5 2.6 -1.1 1 1.2 0.8 2.1 -1 5 -3.6 5.8 -7 6.8 -13 3.6z"/>
  <path d="M304.1 73.6 c-2 -2.1 -2.1 -2.6 -0.8 -2.6 0.9 0 2.8 -1.6 4.4 -3.6 l2.7 -3.6 -3.4 -2.9 -3.5 -2.9 -3.3 3.5 c-1.8 2 -3 4 -2.7 4.5 1.1 1.8 -1.2 1 -3 -1 -1 -1.1 -1.3 -2 -0.8 -2 1.6 0 14.4 -15 13.8 -16.1 -1.1 -1.6 1.1 -0.9 2.8 0.9 2.1 2.3 2.1 3.2 0.3 3.2 -0.8 0 -2.4 1.2 -3.6 2.7 l-2.1 2.6 3.3 3.4 c3 3.1 3.2 3.2 5.1 1.5 1.1 -0.9 2.5 -2.9 3.2 -4.5 l1.1 -2.7 2.4 2.5 c1.7 1.8 2 2.5 0.9 2.5 -1.8 0 -13.2 12.5 -13.9 15.3 -0.5 1.7 -0.7 1.7 -2.9 -0.7z"/>
  <path d="M72.4 64.5 c-3.2 -3.6 -6.4 -6.5 -7.3 -6.5 -1 0 -0.8 -0.7 0.9 -2.5 l2.4 -2.6 0.8 2.2 c0.9 2.3 9.2 11.9 11.5 13.2 2 1.2 6.3 -1.8 6.3 -4.4 0 -2.3 -9.5 -13.8 -12.4 -14.8 -1.7 -0.7 -1.6 -0.9 0.8 -2.4 1.5 -1 2.6 -1.3 2.6 -0.6 0 0.6 2.5 4 5.5 7.5 6.4 7.5 7 10.7 2.9 14.8 -4.5 4.4 -7.4 3.6 -14 -3.9z"/>
  <path d="M94.6 59.7 c0.5 -1.4 -7.5 -14 -10.7 -16.9 -2 -1.7 -2 -1.7 0.1 -2.8 1.7 -0.9 3.6 -0.4 10.7 3 4.7 2.2 8.8 4 9 4 1.2 0 -8.4 -12 -9.6 -12 -1.2 -0.1 -0.9 -0.7 0.9 -2.1 2.4 -2 2.5 -2 2.9 -0.3 0.2 1.1 2.5 5.2 5.2 9.2 8.3 12.1 8 12.3 -5.7 5.8 -5.2 -2.5 -9.4 -4.3 -9.4 -4 0 1.3 8.3 12.6 9.6 13.1 1.3 0.5 1.2 0.8 -0.2 2.4 -2 2.2 -3.6 2.5 -2.8 0.6z"/>
  <path d="M283.8 57.2 c-3 -1.8 -3.6 -3.2 -1.4 -3.2 1.3 0 11.6 -13.9 11.6 -15.8 0 -1.6 -3 -2.3 -5.2 -1.1 -2.8 1.5 -3.2 0.6 -1 -2.1 l1.8 -2.3 7.2 4.9 c7.3 5 8.1 6.1 6 8.2 -1.8 1.8 -3.1 1.4 -2.5 -0.7 0.3 -1.2 -0.2 -2.6 -1.2 -3.5 -1.6 -1.4 -2.1 -0.9 -7.1 6.2 -3 4.2 -5.3 8.5 -5.3 9.5 0.1 0.9 0.1 1.7 0 1.7 -0.1 0 -1.4 -0.8 -2.9 -1.8z"/>
  <path d="M113 47.1 c0 -2.4 -7.8 -16.3 -9.8 -17.5 -1.2 -0.7 -1.1 -1.1 0.9 -2.2 2.9 -1.6 4.2 -1.8 3.4 -0.5 -0.8 1.4 8.7 18 10.5 18.4 1 0.2 0.3 0.9 -1.7 2 -3.2 1.7 -3.3 1.7 -3.3 -0.2z"/>
  <path d="M260.8 43.7 c-2.7 -1.1 -3.8 -2.7 -1.8 -2.7 1.3 0 9 -15.4 9 -18 0 -1.9 0.3 -1.9 6.3 1.1 7.6 3.8 7 3.3 6.2 5.8 -0.8 2.7 -2.5 2.7 -2.5 0.1 0 -1.7 -5.6 -5.9 -6.5 -4.8 -0.5 0.6 -3.5 6.7 -3.5 7.2 0 0.3 0.9 1 2.1 1.6 1.5 0.9 2.4 0.8 3.5 -0.1 2.2 -1.8 1.8 1.4 -0.6 4.2 -1.9 2.4 -1.9 2.4 -2 0.3 0 -1.9 -1.7 -3.4 -3.9 -3.4 -1.3 0 -4.1 6.9 -3.5 8.5 0.4 0.8 0.5 1.5 0.3 1.4 -0.2 -0.1 -1.6 -0.6 -3.1 -1.2z"/>
  <path d="M119.9 33.5 c-4 -4.7 -7.6 -8.5 -8.1 -8.5 -1.9 0 -0.6 -1.7 2.3 -2.7 2.5 -1 3 -1 2.5 0.2 -0.5 1.4 1.3 4.2 7.1 10.8 l3.3 3.7 -0.1 -3.7 c-0.1 -6.1 -1.5 -13.4 -2.8 -14.2 -0.8 -0.5 -0.3 -1.2 1.4 -1.9 1.4 -0.7 2.7 -1.2 2.8 -1.2 0.8 0 0.6 26 -0.1 26 -0.5 0 -4.2 -3.8 -8.3 -8.5z"/>
  <path d="M246.3 37.5 c-3.7 -1.6 -5.3 -4.2 -5.3 -8.5 0 -7.1 5.5 -14 11.2 -14 3.6 0 8.8 4.8 8.8 8.1 0 6.5 -4.6 13.8 -9.5 15.2 -1.1 0.4 -3.4 0 -5.2 -0.8z m7 -3.4 c1.3 -1.6 2.9 -5 3.6 -7.6 1.5 -6 -0.4 -9.8 -4.7 -9.3 -5.6 0.6 -10.4 13.7 -6.7 17.8 2.5 2.8 4.9 2.5 7.8 -0.9z"/>
  <path d="M139.2 34.8 c0 -3.7 -5.2 -18.8 -6.4 -18.8 -2.4 0 0.6 -1.6 7 -3.7 6.6 -2.1 6.7 -2.1 7.6 -0.2 1.1 2.4 0.1 3.6 -1.7 2 -1.4 -1.1 -7.3 -0.5 -8.2 0.9 -0.8 1.3 1.8 8 3.2 8 0.7 0 2.2 -0.9 3.3 -2 l2 -2 1 2.5 c1.4 3.6 1.3 3.7 -1 3 -1.1 -0.3 -2.9 -0.4 -3.9 0 -1.9 0.6 -1.9 0.8 -0.4 5 0.8 2.5 1.9 4.5 2.3 4.5 2.4 0 5.9 -2.5 6.2 -4.4 0.4 -2.8 2.2 -2.3 2.6 0.7 0.3 2 -0.4 2.5 -5.5 4.1 -3.2 1 -6.3 2.1 -6.9 2.3 -0.7 0.2 -1.2 -0.6 -1.2 -1.9z"/>
  <path d="M156.3 30.3 c0.4 -3.3 -2.6 -17.8 -4 -19.4 -1.3 -1.5 -0.9 -1.8 4.4 -2.7 4.2 -0.7 6.5 -0.7 8.3 0.1 3 1.5 3.8 5.8 1.6 9.1 -1.4 2.2 -1.3 2.5 2.3 6 3.9 3.8 5.4 4.5 4.5 2.1 -0.4 -0.9 0 -1.5 0.9 -1.5 0.8 0 1.7 0.7 2.1 1.5 0.7 1.8 4.7 2 6.4 0.3 2.1 -2.1 1.3 -4.8 -1.9 -6.6 -6 -3.3 -7.9 -5.3 -7.9 -8.2 0 -3.6 3.2 -6 8.1 -6 2.8 0 3.8 0.5 4.2 2 0.6 2.4 -1.1 3.8 -1.9 1.6 -1.5 -3.8 -7.4 -2.3 -7.4 1.9 0 1.9 1 3 4.9 5 5.1 2.6 6.7 5 5.7 9 -0.7 2.9 -5.1 4.5 -12.1 4.5 -4.8 0 -5.4 -0.3 -8.4 -4 -3.8 -4.8 -7.1 -5.4 -7.1 -1.2 0 1.5 0.7 3.7 1.5 4.9 1.3 1.9 1.3 2.1 -0.8 2.7 -3.3 0.9 -3.7 0.8 -3.4 -1.1z m7.5 -12.5 c2.7 -2.3 0.3 -8.8 -3.3 -8.8 -3.7 0 -4.2 0.9 -3.2 6.1 0.9 4.4 1.2 4.9 3.1 4.3 1.1 -0.4 2.7 -1.1 3.4 -1.6z"/>
  <path d="M223.3 31.3 c-2.4 -0.5 -3.1 -1.9 -1.2 -2.5 2.1 -0.7 2.1 -8.2 0 -14.8 -1.1 -3.5 -1.8 -6.6 -1.6 -6.8 0.2 -0.3 1.6 -0.1 3 0.2 2.1 0.5 2.4 1 1.6 2 -1.1 1.3 0.1 6.9 1.9 8.9 1 1.1 6 -5 6 -7.2 0 -1.4 0.6 -1.7 2.5 -1.3 1.4 0.2 2.5 0.5 2.5 0.6 0 0.1 -2.4 2.7 -5.4 5.9 -5.6 6 -7.7 11.7 -5.4 14.4 1.1 1.4 0.6 1.5 -3.9 0.6z"/>
  <path d="M203.5 28 c-0.3 -0.5 -0.2 -1 0.4 -1 0.9 0 1.4 -3 2.4 -15.2 0.4 -4.5 0.3 -4.8 -1.9 -4.8 -1.4 0 -2.5 0.8 -2.9 2 -1 3.1 -2.5 2.4 -2.5 -1.1 l0 -3.2 8.5 0.6 c4.7 0.3 8.9 0.8 9.4 1.1 0.9 0.6 0.2 5.6 -0.8 5.6 -0.3 0 -1.1 -1 -1.6 -2.2 -0.6 -1.3 -1.8 -2.4 -2.7 -2.6 -1.3 -0.3 -1.8 0.8 -2.3 5.1 -0.4 3 -0.5 8 -0.3 11.1 0.3 5.5 0.3 5.6 -2.4 5.6 -1.5 0 -3 -0.4 -3.3 -1z"/>
  <path d="M189.8 26.8 c0.8 -0.8 1.2 -4.6 1.2 -10.3 0 -5.7 -0.4 -9.5 -1.2 -10.3 -0.9 -0.9 -0.3 -1.2 2.7 -1.2 3 0 3.6 0.3 2.7 1.2 -1.5 1.5 -1.6 17.1 -0.2 19.9 1 1.7 0.7 1.9 -2.7 1.9 -2.9 0 -3.4 -0.3 -2.5 -1.2z"/>
 </g>
</svg>